<?xml version="1.0" encoding="UTF-8"?>
<svg id="Layer_1"
     xmlns="http://www.w3.org/2000/svg"
     viewBox="0 0 648 648"
     version="1.1">

  <!-- Generator: Adobe Illustrator 29.3.0, SVG Export Plug-In 2.1.0 Build 146 -->
  <defs>
    <style>
      /* Symbol fill – violet on transparent background */
      .st0 { fill: #9e28b5; }
    </style>
  </defs>

  <g transform="translate(-36 -36)">
    <!-- Outer marker -->
    <path class="st0"
          d="M361.89,36.01c-139.7-1.02-255.06,112.35-256.39,252.04-.34,35.15,6.46,68.64,19.02,99.19h-.02c40.75,110.76,193.2,260.4,228.28,293.86,4.05,3.86,10.4,3.86,14.45,0,35.07-33.46,187.52-183.1,228.25-293.86,12.27-29.83,19.04-62.46,19.04-96.7,0-139.94-112.92-253.51-252.62-254.53ZM360,479.57c-104.24,0-189.04-84.8-189.04-189.04s84.8-189.04,189.04-189.04,189.04,84.8,189.04,189.04-84.8,189.04-189.04,189.04Z"/>

    <!-- Flare / star -->
    <path class="st0"
          d="M416.96,189.2l-21.12,33.71c-1.58,2.52-3.98,4.4-6.8,5.32h0c-9.04,2.98-18.82,4.49-29.05,4.49s-20.01-1.5-29.05-4.49h0c-2.82-.92-5.23-2.81-6.8-5.32l-21.12-33.72c-5.22-8.34,2.5-18.75,12-16.17l15.82,4.31c3,.82,6.18-.48,7.75-3.16l12.59-21.43c3.96-6.74,13.7-6.74,17.66,0l12.6,21.44c1.58,2.68,4.75,3.97,7.75,3.16l15.79-4.3c9.49-2.59,17.22,7.83,12,16.17Z"/>

    <!-- Inner path -->
    <path class="st0"
          d="M396.31,243.93c-1.78-1.52-4.19-1.99-6.44-1.35-5.69,1.63-11.73,2.8-18.03,3.47-1.43.15-2.64,1.14-3.02,2.53l-9.46,34.31c-1.31,4.75-5.95,8.03-10.79,7.17-5.56-.98-8.95-6.48-7.48-11.79l7.74-28.08c.57-2.08-.86-4.13-2.99-4.4-5.47-.69-10.73-1.76-15.72-3.2-2.25-.65-4.67-.18-6.44,1.35-19.23,16.52-124.88,113.07-38.27,171.37h.02c21.82,13.09,47.33,20.61,74.56,20.61s52.79-7.54,74.59-20.61c.05-.05.12-.07.17-.12,86.35-58.3-19.22-154.76-38.44-171.26Z"/>
  </g>
</svg>

