<?xml version="1.0" encoding="UTF-8"?>
<svg id="Layer_1" xmlns="http://www.w3.org/2000/svg" version="1.1" viewBox="0 0 720 720">
  <!-- Generator: Adobe Illustrator 29.3.0, SVG Export Plug-In . SVG Version: 2.1.0 Build 146)  -->
  <defs>
    <style>
      .st0 {
        fill: #9e28b5;
      }
    </style>
  </defs>
  <g>
    <path class="st0" d="M253.88,299.98c0-9.61,4.48-15.32,13.44-17.14,3.9-.78,8.67-1.33,14.32-1.66,5.65-.32,12.5-.49,20.55-.49,19.48,0,34.54,4.09,45.19,12.27,10.65,8.18,15.97,19.74,15.97,34.67s-4.94,26.59-14.8,34.58c-9.87,7.99-24.22,11.98-43.05,11.98-2.21,0-4.71-.06-7.5-.19-2.79-.13-5.33-.32-7.6-.58-2.27-.26-3.87-.45-4.77-.58v43.44h-31.75v-116.3ZM330.04,327.64c0-12.73-9.35-19.09-28.05-19.09-2.86,0-5.94.07-9.25.19-3.31.13-5.68.33-7.11.58v36.04c3.51.78,8.83,1.17,15.97,1.17,18.96,0,28.44-6.3,28.44-18.9Z"/>
    <path class="st0" d="M423.75,419.01c-10.26,0-19.55-2.34-27.86-7.01-8.31-4.68-14.9-10.97-19.77-18.9-4.87-7.92-7.31-16.75-7.31-26.49s2.43-18.73,7.31-26.59c4.87-7.86,11.46-14.12,19.77-18.8,8.31-4.68,17.6-7.01,27.86-7.01s19.71,2.34,27.95,7.01c8.25,4.68,14.81,10.94,19.68,18.8,4.87,7.86,7.3,16.72,7.3,26.59s-2.43,18.57-7.3,26.49c-4.87,7.92-11.43,14.22-19.68,18.9-8.25,4.68-17.56,7.01-27.95,7.01ZM440.11,349.17c-4.29-4.61-9.74-6.92-16.36-6.92s-12.08,2.31-16.36,6.92c-4.29,4.61-6.43,10.42-6.43,17.44s2.14,12.83,6.43,17.44c4.29,4.61,9.74,6.92,16.36,6.92s12.08-2.3,16.36-6.92c4.29-4.61,6.43-10.42,6.43-17.44s-2.14-12.82-6.43-17.44Z"/>
    <path class="st0" d="M543.74,419.01c-10.26,0-19.55-2.34-27.86-7.01-8.31-4.68-14.9-10.97-19.77-18.9-4.87-7.92-7.31-16.75-7.31-26.49s2.43-18.73,7.31-26.59c4.87-7.86,11.46-14.12,19.77-18.8,8.31-4.68,17.6-7.01,27.86-7.01s19.71,2.34,27.95,7.01c8.25,4.68,14.81,10.94,19.68,18.8,4.87,7.86,7.3,16.72,7.3,26.59s-2.43,18.57-7.3,26.49c-4.87,7.92-11.43,14.22-19.68,18.9-8.25,4.68-17.56,7.01-27.95,7.01ZM560.11,349.17c-4.29-4.61-9.74-6.92-16.36-6.92s-12.08,2.31-16.36,6.92c-4.29,4.61-6.43,10.42-6.43,17.44s2.14,12.83,6.43,17.44c4.29,4.61,9.74,6.92,16.36,6.92s12.08-2.3,16.36-6.92c4.29-4.61,6.43-10.42,6.43-17.44s-2.14-12.82-6.43-17.44Z"/>
    <path class="st0" d="M610.75,313.81c0-13.38,3.57-23.57,10.72-30.58,7.14-7.01,17.46-10.52,30.97-10.52,5.32,0,10.19.52,14.61,1.56,4.41,1.04,7.86,2.27,10.32,3.7,4.41,2.6,6.62,6.23,6.62,10.91,0,2.86-.75,5.52-2.24,7.99-1.49,2.47-3.54,4.35-6.14,5.65-1.69-1.56-4.19-2.85-7.5-3.9-3.31-1.04-6.66-1.56-10.03-1.56-5.07,0-8.99,1.36-11.79,4.09-2.79,2.73-4.19,6.56-4.19,11.49v4.29h21.62c10.78,0,16.17,4.68,16.17,14.03,0,2.6-.39,5.29-1.17,8.08-.78,2.79-1.69,5.16-2.73,7.11h-33.9v70.13h-31.36v-102.47Z"/>
  </g>
  <g>
    <path class="st0" d="M128.98,242.52c-50.66-.37-92.49,40.74-92.97,91.39-.12,12.74,2.34,24.89,6.9,35.97h0c14.78,40.16,70.06,94.42,82.78,106.56,1.47,1.4,3.77,1.4,5.24,0,12.72-12.13,68-66.4,82.77-106.56,4.45-10.82,6.9-22.65,6.9-35.07,0-50.74-40.95-91.93-91.6-92.3ZM128.29,403.36c-37.8,0-68.55-30.75-68.55-68.55s30.75-68.55,68.55-68.55,68.55,30.75,68.55,68.55-30.75,68.55-68.55,68.55Z"/>
    <path class="st0" d="M148.94,298.06l-7.66,12.22c-.57.91-1.44,1.6-2.47,1.93h0c-3.28,1.08-6.82,1.63-10.53,1.63s-7.25-.55-10.53-1.63h0c-1.02-.34-1.9-1.02-2.47-1.93l-7.66-12.23c-1.89-3.02.91-6.8,4.35-5.86l5.74,1.56c1.09.3,2.24-.17,2.81-1.15l4.56-7.77c1.43-2.44,4.97-2.44,6.4,0l4.57,7.77c.57.97,1.72,1.44,2.81,1.14l5.73-1.56c3.44-.94,6.24,2.84,4.35,5.86Z"/>
    <path class="st0" d="M141.45,317.91c-.64-.55-1.52-.72-2.33-.49-2.06.59-4.26,1.02-6.54,1.26-.52.05-.96.41-1.09.92l-3.43,12.44c-.47,1.72-2.16,2.91-3.91,2.6-2.02-.35-3.24-2.35-2.71-4.28l2.81-10.18c.21-.75-.31-1.5-1.09-1.6-1.98-.25-3.89-.64-5.7-1.16-.82-.23-1.69-.06-2.34.49-6.97,5.99-45.28,41-13.88,62.14h0c7.91,4.75,17.16,7.47,27.04,7.47s19.14-2.73,27.05-7.47c.02-.02.04-.03.06-.04,31.31-21.14-6.97-56.12-13.94-62.1Z"/>
  </g>
</svg>