<?xml version="1.0" encoding="UTF-8"?>
<!-- Poof Worker splash-logo, perfectly centred and inside Android’s 768-px safe circle -->
<svg xmlns="http://www.w3.org/2000/svg" viewBox="0 0 1024 1024" version="1.1">
  <!-- (1024 − 720) / 2 = 152 -->
  <g transform="translate(152 152)">
    <path fill="#9e28b5"
      d="M361.89 36.01c-139.7-1.02-255.06 112.35-256.39 252.04-.34 35.15 6.46 68.64 19.02
         99.19h-.02C165.25 498 317.7 647.64 352.78 681.1c4.05 3.86 10.4 3.86 14.45 0C402.3
         647.64 554.75 498 595.48 387.24c12.27-29.83 19.04-62.46 19.04-96.7 0-139.94-112.92
         -253.51-252.62-254.53ZM360 479.57c-104.24 0-189.04-84.8-189.04-189.04S255.76 101.49
         360 101.49s189.04 84.8 189.04 189.04S464.24 479.57 360 479.57"/>
    <path fill="#9e28b5"
      d="m416.96 189.2-21.12 33.71c-1.58 2.52-3.98 4.4-6.8 5.32-9.04 2.98-18.82 4.49
         -29.05 4.49s-20.01-1.5-29.05-4.49c-2.82-.92-5.23-2.81-6.8-5.32l-21.12-33.72
         c-5.22-8.34 2.5-18.75 12-16.17l15.82 4.31c3 .82 6.18-.48 7.75-3.16l12.59-21.43
         c3.96-6.74 13.7-6.74 17.66 0l12.6 21.44a6.904 6.904 0 0 0 7.75 3.16l15.79-4.3
         c9.49-2.59 17.22 7.83 12 16.17ZM396.31 243.93c-1.78-1.52-4.19-1.99-6.44-1.35
         -5.69 1.63-11.73 2.8-18.03 3.47-1.43.15-2.64 1.14-3.02 2.53l-9.46 34.31c-1.31
         4.75-5.95 8.03-10.79 7.17-5.56-.98-8.95-6.48-7.48-11.79l7.74-28.08c.57-2.08-.86
         -4.13-2.99-4.4-5.47-.69-10.73-1.76-15.72-3.2-2.25-.65-4.67-.18-6.44 1.35
         -19.23 16.52-124.88 113.07-38.27 171.37h.02c21.82 13.09 47.33 20.61 74.56
         20.61s52.79-7.54 74.59-20.61c.05-.05.12-.07.17-.12 86.35-58.3-19.22-154.76
         -38.44-171.26"/>
  </g>
</svg>
