<?xml version="1.0" encoding="UTF-8"?>
<svg xmlns="http://www.w3.org/2000/svg"
     width="1024" height="500"
     viewBox="35 241 649 238">

<rect x="0" y="0" width="1024" height="500" fill="white"/>

  <g fill="#9e28b5" transform="translate(359.5,360) scale(0.7) translate(-359.5,-360)">
    <path d="M249.19,340.89c0-11.85,2.18-21.94,6.54-30.28,4.36-8.33,10.55-14.71,18.56-19.14,8.01-4.43,17.48-6.64,28.42-6.64s20.87,2.25,29.01,6.74,14.45,10.68,18.95,18.56c4.49,7.88,6.74,16.96,6.74,27.25s-2.15,19.02-6.45,26.96c-4.3,7.94-10.06,14.19-17.29,18.75-7.23,4.56-15.4,6.84-24.51,6.84-5.86,0-11.27-.98-16.21-2.93-4.95-1.95-9.05-4.56-12.31-7.81v47.08h-31.45v-85.36ZM318.93,354.86c4.17-4.36,6.25-10.12,6.25-17.29s-2.08-12.92-6.25-17.29c-4.17-4.36-9.57-6.54-16.21-6.54s-12.05,2.18-16.21,6.54c-4.17,4.36-6.25,10.13-6.25,17.29s2.08,12.93,6.25,17.29c4.17,4.36,9.57,6.54,16.21,6.54s12.04-2.18,16.21-6.54Z"/>
    <path d="M423.04,389.92c-10.29,0-19.6-2.34-27.93-7.03-8.34-4.69-14.94-11-19.83-18.95-4.88-7.94-7.33-16.8-7.33-26.57s2.44-18.78,7.33-26.66c4.88-7.88,11.49-14.16,19.83-18.85,8.33-4.69,17.64-7.03,27.93-7.03s19.76,2.34,28.03,7.03c8.27,4.69,14.85,10.97,19.73,18.85,4.88,7.88,7.32,16.77,7.32,26.66s-2.44,18.62-7.32,26.57c-4.88,7.95-11.46,14.26-19.73,18.95-8.27,4.69-17.61,7.03-28.03,7.03ZM439.45,319.89c-4.3-4.62-9.77-6.93-16.41-6.93s-12.11,2.31-16.41,6.93c-4.3,4.62-6.45,10.45-6.45,17.48s2.15,12.86,6.45,17.48c4.3,4.62,9.77,6.93,16.41,6.93s12.11-2.31,16.41-6.93c4.3-4.62,6.45-10.45,6.45-17.48s-2.15-12.86-6.45-17.48Z"/>
    <path d="M543.36,389.92c-10.29,0-19.6-2.34-27.93-7.03-8.34-4.69-14.94-11-19.83-18.95-4.88-7.94-7.33-16.8-7.33-26.57s2.44-18.78,7.33-26.66c4.88-7.88,11.49-14.16,19.83-18.85,8.33-4.69,17.64-7.03,27.93-7.03s19.76,2.34,28.03,7.03c8.27,4.69,14.85,10.97,19.73,18.85,4.88,7.88,7.32,16.77,7.32,26.66s-2.44,18.62-7.32,26.57c-4.88,7.95-11.46,14.26-19.73,18.95-8.27,4.69-17.61,7.03-28.03,7.03ZM559.77,319.89c-4.3-4.62-9.77-6.93-16.41-6.93s-12.11,2.31-16.41,6.93c-4.3,4.62-6.45,10.45-6.45,17.48s2.15,12.86,6.45,17.48c4.3,4.62,9.77,6.93,16.41,6.93s12.11-2.31,16.41-6.93c4.3-4.62,6.45-10.45,6.45-17.48s-2.15-12.86-6.45-17.48Z"/>
    <path d="M610.55,284.44c0-13.41,3.58-23.64,10.74-30.67,7.16-7.03,17.51-10.55,31.06-10.55,5.34,0,10.22.52,14.65,1.56,4.43,1.04,7.88,2.28,10.35,3.71,4.43,2.61,6.64,6.25,6.64,10.94,0,2.87-.75,5.54-2.25,8.01-1.5,2.47-3.55,4.36-6.15,5.66-1.69-1.56-4.2-2.86-7.52-3.91-3.32-1.04-6.68-1.56-10.06-1.56-5.08,0-9.02,1.37-11.82,4.1-2.8,2.73-4.2,6.58-4.2,11.52v4.3h21.68c10.81,0,16.21,4.69,16.21,14.06,0,2.61-.39,5.31-1.17,8.11-.78,2.8-1.69,5.18-2.74,7.13h-33.99v70.32h-31.45v-102.75Z"/>
  </g>

  <!-- Second logo block -->
  <g fill="#000000" transform="translate(359.5,360) scale(0.7) translate(-359.5,-360)">
    <path d="M129.23,242.2c-50.79-.37-92.74,40.85-93.22,91.64-.12,12.78,2.35,24.96,6.92,36.07h0c14.82,40.27,70.25,94.68,83,106.85,1.47,1.4,3.78,1.4,5.25,0,12.75-12.17,68.18-66.58,82.99-106.85,4.46-10.84,6.92-22.71,6.92-35.16,0-50.88-41.06-92.18-91.85-92.55ZM128.54,403.48c-37.9,0-68.74-30.83-68.74-68.74s30.83-68.74,68.74-68.74,68.74,30.83,68.74,68.74-30.83,68.74-68.74,68.74Z"/>
    <path d="M149.25,297.9l-7.68,12.26c-.57.91-1.45,1.60-2.47,1.94h0c-3.29,1.08-6.84,1.63-10.56,1.63s-7.27-.55-10.56-1.63h0c-1.03-.34-1.90-1.02-2.47-1.94l-7.68-12.26c-1.90-3.03.91-6.82,4.36-5.88l5.75,1.57c1.09.30,2.25-.17,2.82-1.15l4.58-7.79c1.44-2.45,4.98-2.45,6.42,0l4.58,7.79c.57.97,1.73,1.44,2.82,1.15l5.74-1.56c3.45-.94,6.26,2.85,4.36,5.88Z"/>
    <path d="M141.74,317.8c-.65-.55-1.52-.72-2.34-.49-2.07.59-4.27,1.02-6.56,1.26-.52.05-.96.41-1.1.92l-3.44,12.47c-.48,1.73-2.16,2.92-3.92,2.61-2.02-.36-3.25-2.36-2.72-4.29l2.81-10.21c.21-.75-.31-1.5-1.09-1.6-1.99-.25-3.9-.64-5.71-1.16-.82-.24-1.7-.06-2.34.49-6.99,6.01-45.41,41.11-13.91,62.31h0c7.94,4.76,17.21,7.49,27.11,7.49s19.19-2.74,27.12-7.49c.02-.02.04-.03.06-.04,31.4-21.2-6.99-56.27-13.98-62.27Z"/>
  </g>

</svg>

